HIERARCHY
ROOT joint_Root
{
	OFFSET 0.0 0.0 0.0
	CHANNELS 6 Xposition Yposition Zposition Zrotation Xrotation Yrotation 
	JOINT Hips
	{
		OFFSET -0.726466 93.3139 -2.00062
		CHANNELS 6 Xposition Yposition Zposition Zrotation Xrotation Yrotation 
		JOINT Spine
		{
			OFFSET 15.7357 0.0 0.0
			CHANNELS 6 Xposition Yposition Zposition Zrotation Xrotation Yrotation 
			JOINT Chest
			{
				OFFSET 8.98455 -0.406207 0.0
				CHANNELS 6 Xposition Yposition Zposition Zrotation Xrotation Yrotation 
				JOINT Neck
				{
					OFFSET 16.3773 0.0 0.0
					CHANNELS 6 Xposition Yposition Zposition Zrotation Xrotation Yrotation 
					JOINT Head
					{
						OFFSET 6.45672 0.0 0.0
						CHANNELS 6 Xposition Yposition Zposition Zrotation Xrotation Yrotation 
						End Site
						{
							OFFSET 0.0 0.0 0.0
						}
					}
				}
				JOINT Shoulder_L
				{
					OFFSET 12.9942 -0.242716 4.98039
					CHANNELS 6 Xposition Yposition Zposition Zrotation Xrotation Yrotation 
					JOINT UpperArm_L
					{
						OFFSET 5.34809 0.0 0.0
						CHANNELS 6 Xposition Yposition Zposition Zrotation Xrotation Yrotation 
						JOINT LowerArm_L
						{
							OFFSET 24.3286 1.87007e-05 0.0
							CHANNELS 6 Xposition Yposition Zposition Zrotation Xrotation Yrotation 
							JOINT Hand_L
							{
								OFFSET 22.2916 0.0 0.0
								CHANNELS 6 Xposition Yposition Zposition Zrotation Xrotation Yrotation 
								End Site
								{
									OFFSET 0.0 0.0 0.0
								}
							}
						}
					}
				}
				JOINT Shoulder_R
				{
					OFFSET 12.9945 -0.242716 -4.98039
					CHANNELS 6 Xposition Yposition Zposition Zrotation Xrotation Yrotation 
					JOINT UpperArm_R
					{
						OFFSET -5.34813 0.0 0.0
						CHANNELS 6 Xposition Yposition Zposition Zrotation Xrotation Yrotation 
						JOINT LowerArm_R
						{
							OFFSET -24.3289 0.000322201 0.0
							CHANNELS 6 Xposition Yposition Zposition Zrotation Xrotation Yrotation 
							JOINT Hand_R
							{
								OFFSET -22.2915 -0.000108084 0.0
								CHANNELS 6 Xposition Yposition Zposition Zrotation Xrotation Yrotation 
								End Site
								{
									OFFSET 0.0 0.0 0.0
								}
							}
						}
					}
				}
			}
		}
		JOINT UpperLeg_L
		{
			OFFSET -2.19248 -6.46944 0.0
			CHANNELS 6 Xposition Yposition Zposition Zrotation Xrotation Yrotation 
			JOINT LowerLeg_L
			{
				OFFSET 39.0811 0.0 -1.23785e-05
				CHANNELS 6 Xposition Yposition Zposition Zrotation Xrotation Yrotation 
				JOINT Foot_L
				{
					OFFSET 40.9854 0.0 -1.26872e-05
					CHANNELS 6 Xposition Yposition Zposition Zrotation Xrotation Yrotation 
					JOINT Toes_L
					{
						OFFSET 11.7543 0.0 0.0
						CHANNELS 6 Xposition Yposition Zposition Zrotation Xrotation Yrotation 
						End Site
						{
							OFFSET 0.0 0.0 0.0
						}
					}
				}
			}
		}
		JOINT UpperLeg_R
		{
			OFFSET -2.19251 6.46944 0.0
			CHANNELS 6 Xposition Yposition Zposition Zrotation Xrotation Yrotation 
			JOINT LowerLeg_R
			{
				OFFSET -39.0811 -0.00228153 -0.0401928
				CHANNELS 6 Xposition Yposition Zposition Zrotation Xrotation Yrotation 
				JOINT Foot_R
				{
					OFFSET -40.9854 0.0 0.0
					CHANNELS 6 Xposition Yposition Zposition Zrotation Xrotation Yrotation 
					JOINT Toes_R
					{
						OFFSET -11.7543 0.0 0.0
						CHANNELS 6 Xposition Yposition Zposition Zrotation Xrotation Yrotation 
						End Site
						{
							OFFSET 0.0 0.0 0.0
						}
					}
				}
			}
		}
	}
}
MOTION
Frames:	4
Frame Time:	0.0333333
0.000000 0.000000 0.000000 0.000000 0.000000 -0.000000 -208.147000 88.873000 197.201000 -10.729500 84.210100 105.204000 15.735700 0.000005 -0.000001 71.985200 82.642000 -68.599600 8.984550 -0.406207 -0.000000 6.388960 -4.578410 7.022370 16.377300 -0.000001 -0.000001 1.395390 -1.223470 -0.038818 6.456720 -0.000001 -0.000000 1.335000 2.471360 -0.675631 12.994200 -0.242716 4.980390 -89.791700 -0.712365 -73.701000 5.348090 -0.000007 -0.000001 -65.214000 33.588900 -25.581300 24.328600 0.000019 0.000005 -0.013702 -0.023900 -29.395800 22.291600 -0.000001 0.000005 10.310100 5.521400 -7.418490 12.994500 -0.242716 -4.980390 87.764100 6.191560 -70.099700 -5.348130 -0.000001 -0.000004 -69.022900 21.557300 -8.132380 -24.328900 0.000322 -0.000009 1.450740 11.506100 -7.240850 -22.291500 -0.000108 -0.000004 8.858430 5.321530 -0.539910 -2.192480 -6.469440 -0.000000 -168.980000 -2.872570 0.297518 39.081100 -0.000007 -0.000012 0.065794 -0.043273 56.664200 40.985400 -0.000006 -0.000013 0.955155 2.713720 -39.694900 11.754300 -0.000000 0.000003 -0.007944 -0.087586 -20.143300 -2.192510 6.469440 -0.000001 -170.083000 17.171800 159.261000 -39.081100 -0.002282 -0.040193 -0.082288 0.121182 35.229600 -40.985400 0.000008 0.000006 5.848560 -2.231610 -61.834200 -11.754300 -0.000006 -0.000006 -0.014394 -0.133965 -22.037900
0.000000 0.000000 0.000000 0.000000 0.000000 -0.000000 -204.953000 89.422900 197.732000 2.145510 84.693900 92.658600 15.735700 0.000005 -0.000001 77.627500 82.825700 -74.494900 8.984550 -0.406207 -0.000000 6.349220 -3.104060 6.431800 16.377300 -0.000001 -0.000001 1.624170 -1.449700 0.314803 6.456720 -0.000001 -0.000000 1.487450 1.315920 0.121014 12.994200 -0.242716 4.980390 -89.765700 -0.778512 -73.249500 5.348090 -0.000007 -0.000001 -67.798100 33.926300 -21.821600 24.328600 0.000019 0.000005 0.692890 1.497730 -24.836000 22.291600 -0.000001 0.000005 8.213940 5.481570 -5.804580 12.994500 -0.242716 -4.980390 87.710900 6.531880 -70.638700 -5.348130 -0.000001 -0.000004 -68.039100 24.474900 -11.716500 -24.328900 0.000322 -0.000009 1.737400 10.765700 -9.229150 -22.291500 -0.000108 -0.000004 9.003800 5.336220 -0.967687 -2.192480 -6.469440 -0.000000 -169.625000 -4.552960 -4.716370 39.081100 -0.000007 -0.000012 0.063622 -0.031038 63.991000 40.985400 -0.000006 -0.000013 3.112970 -3.007300 -41.007200 11.754300 -0.000000 0.000003 -0.007612 -0.084843 -20.031300 -2.192510 6.469440 -0.000001 -170.795000 16.873900 162.758000 -39.081100 -0.002282 -0.040193 -0.082776 0.126993 34.127200 -40.985400 0.000008 0.000006 5.806860 -1.362650 -63.732500 -11.754300 -0.000006 -0.000006 -0.013823 -0.130271 -21.886400
0.000000 0.000000 0.000000 0.000000 0.000000 -0.000000 -201.877000 90.066600 198.034000 24.325700 85.105700 71.082900 15.735700 0.000005 -0.000001 83.426300 82.762600 -80.780400 8.984550 -0.406207 -0.000000 6.660110 -1.677270 5.383930 16.377300 -0.000001 -0.000001 1.864450 -1.369750 0.531476 6.456720 -0.000001 -0.000000 1.701270 0.202221 0.748627 12.994200 -0.242716 4.980390 -89.714200 -0.904736 -72.467000 5.348090 -0.000007 -0.000001 -70.509000 32.692300 -17.568400 24.328600 0.000019 0.000005 1.722480 4.463590 -21.129700 22.291600 -0.000001 0.000005 6.623900 5.444800 -4.452800 12.994500 -0.242716 -4.980390 87.772100 6.700820 -71.561600 -5.348130 -0.000001 -0.000004 -66.718700 26.956200 -15.922000 -24.328900 0.000322 -0.000009 2.025810 9.718170 -11.841400 -22.291500 -0.000108 -0.000004 9.554260 5.353960 -1.495980 -2.192480 -6.469440 -0.000000 -171.064000 -6.836680 -8.600470 39.081100 -0.000007 -0.000012 0.030844 -0.012493 67.941700 40.985400 -0.000006 -0.000013 6.856820 -6.875150 -44.464400 11.754300 -0.000000 0.000003 -0.007464 -0.083606 -19.980800 -2.192510 6.469440 -0.000001 -172.261000 16.814900 166.889000 -39.081100 -0.002282 -0.040193 -0.075757 0.125683 32.169800 -40.985400 0.000008 0.000006 5.809030 0.237987 -65.097000 -11.754300 -0.000006 -0.000006 -0.013533 -0.128371 -21.808500
0.000000 0.000000 0.000000 0.000000 0.000000 -0.000000 -199.058000 90.669500 198.214000 49.636800 84.607400 45.814300 15.735700 0.000005 -0.000001 88.047100 82.743200 -85.989400 8.984550 -0.406207 -0.000000 6.751780 -0.511118 4.141130 16.377300 -0.000001 -0.000001 2.125430 -0.882518 0.709200 6.456720 -0.000001 -0.000000 1.804200 -0.656127 0.741564 12.994200 -0.242716 4.980390 -89.579400 -1.256350 -71.490200 5.348090 -0.000007 -0.000001 -72.997500 30.129000 -12.902700 24.328600 0.000019 0.000005 2.062360 6.191880 -18.462900 22.291600 -0.000001 0.000005 6.071340 5.431890 -4.004220 12.994500 -0.242716 -4.980390 87.974500 6.520020 -72.700400 -5.348130 -0.000001 -0.000004 -65.126200 29.395900 -20.872800 -24.328900 0.000322 -0.000009 2.152900 8.257690 -14.675600 -22.291500 -0.000108 -0.000004 10.023900 5.374800 -2.135400 -2.192480 -6.469440 -0.000000 -172.825000 -8.920620 -12.796400 39.081100 -0.000007 -0.000012 0.023478 -0.009003 69.007800 40.985400 -0.000006 -0.000013 7.266030 -8.949540 -46.192100 11.754300 -0.000000 0.000003 -0.005514 -0.066362 -19.277200 -2.192510 6.469440 -0.000001 -173.888000 17.200000 170.403000 -39.081100 -0.002282 -0.040193 -0.064617 0.118449 29.830100 -40.985400 0.000008 0.000006 5.968840 2.801010 -66.091000 -11.754300 -0.000006 -0.000006 -0.013899 -0.130766 -21.906700
